# xmcd CD database file
# Generated: Sat Jul 12 20:12:28 2003 by KSCD
# 
# Track frame offsets:
#       183
#       12788
#       30040
#       45145
#       61195
#       77933
#       88860
#       107710
#       120743
#       140200
#       155293
#       172915
#       188378
#       204670
#       216713
#       229953
#       242890
#
# Disc length: 3511 seconds
#
# Revision: 1
# Processed by: cddbd v1.4PL0 Copyright (c) Steve Scherf et al.
# Submitted via: Kscd 1.3.3
#
DISCID=dd0db511
DTITLE=The Amazing Stroopwafels - Gaan te ver
DYEAR=1900
DGENRE=
TTITLE0=Het vak
TTITLE1=
TTITLE2=
TTITLE3=
TTITLE4=
TTITLE5=
TTITLE6=
TTITLE7=
TTITLE8=
TTITLE9=
TTITLE10=
TTITLE11=
TTITLE12=
TTITLE13=
TTITLE14=
TTITLE15=
TTITLE16=
EXTD=
EXTT0=
EXTT1=
EXTT2=
EXTT3=
EXTT4=
EXTT5=
EXTT6=
EXTT7=
EXTT8=
EXTT9=
EXTT10=
EXTT11=
EXTT12=
EXTT13=
EXTT14=
EXTT15=
EXTT16=
PLAYORDER=
